<svg width="400" height="200" viewBox="0 0 400 200" fill="none" xmlns="http://www.w3.org/2000/svg">
<path d="M88.7514 110.324C87.4765 111.487 85.6357 111.874 84.483 112.022C82.1342 112.317 79.7052 111.534 78.1552 109.656C76.8824 108.122 76.2293 106.136 74.9866 104.547C73.0236 102.033 69.8857 100.387 66.6533 100.969C60.2637 102.134 57.3647 109.622 60.977 114.817C66.1403 122.241 77.7516 120.955 83.7108 115.812C85.5664 114.213 87.2989 112.434 88.7514 110.324" fill="#472380"/>
<path d="M305.25 110.323C306.527 111.488 308.362 111.875 309.519 112.021C311.867 112.318 314.297 111.535 315.846 109.656C317.119 108.12 317.775 106.136 319.015 104.548C320.981 102.033 324.119 100.386 327.35 100.969C333.737 102.133 336.636 109.622 333.021 114.817C327.86 122.24 316.25 120.956 310.294 115.813C308.437 114.214 306.701 112.433 305.25 110.323" fill="#472380"/>
<path d="M283.974 70.7289C283.813 70.7233 268.563 70.7233 268.422 70.7284C266.751 70.7791 265.369 72.335 265.29 73.9351C265.205 75.6352 266.675 77.3213 268.422 77.4059C268.583 77.4115 283.833 77.4115 283.974 77.4059C285.646 77.3547 287.028 75.7998 287.106 74.1991C287.192 72.4976 285.722 70.8144 283.974 70.7289Z" fill="#472380"/>
<path d="M186.849 104.038C186.636 103.151 186.523 102.279 186.462 101.398C186.452 100.127 186.452 98.3431 186.452 96.7012C186.611 91.0302 187.664 81.0541 180.012 81.0541C174.843 81.0541 171.781 85.4253 170.914 86.8544C170.79 82.8695 167.662 79.9785 162.884 79.9785C159.836 79.9785 158.025 82.417 158.025 82.417C158.025 82.417 160.999 83.4533 160.999 87.469C161.031 90.345 160.995 104.345 160.999 104.404C161.116 106.886 162.841 109.212 165.926 109.212C169.011 109.212 170.925 106.828 170.925 104.4V91.9829C171.355 89.9532 172.492 87.8817 174.205 87.8817C176.427 87.8817 176.552 90.3654 176.562 90.3654L176.552 102.385C176.562 102.776 176.612 103.151 176.679 103.519C176.789 104.146 176.978 104.729 177.248 105.264C178.434 107.685 181.056 109.263 184.58 109.263C187.626 109.263 189.437 106.827 189.437 106.827C189.437 106.827 187.649 106.193 186.85 104.038" fill="#472380"/>
<path d="M260.411 104.039C260.196 103.152 260.081 102.279 260.024 101.398L260.033 71.6491C260.033 68.7556 257.699 66.4102 254.821 66.4102C251.941 66.4102 249.608 68.7556 249.608 71.6491L249.615 97.9958C249.641 100.369 249.409 102.794 250.523 104.975C251.704 107.397 254.617 109.263 258.137 109.263C261.192 109.263 262.999 106.827 262.999 106.827C262.999 106.827 261.215 106.193 260.411 104.039" fill="#472380"/>
<path d="M143.938 80.7949C136.116 80.7949 129.776 87.1666 129.776 95.0299C129.776 102.892 136.116 109.263 143.938 109.263C151.759 109.263 158.101 102.892 158.101 95.0299C158.101 87.1666 151.759 80.7949 143.938 80.7949ZM144.042 103.217V103.225C144.031 103.225 144.022 103.22 144.011 103.22C144 103.22 143.991 103.225 143.982 103.225V103.217C141.308 103.169 139.967 100.08 139.967 95.0299C139.967 89.9869 141.666 86.8946 143.982 86.8394V86.8384C143.99 86.8384 144 86.8384 144.011 86.8394C144.021 86.8384 144.03 86.8384 144.042 86.8384V86.8394C146.356 86.8946 148.056 89.9869 148.056 95.0299C148.056 100.08 146.718 103.169 144.042 103.217Z" fill="#472380"/>
<path d="M218.704 104.039C218.488 103.152 218.373 102.279 218.316 101.398L218.323 71.6491C218.323 68.7556 215.99 66.4102 213.111 66.4102C210.232 66.4102 207.899 68.7556 207.899 71.6491L207.878 85.7399C206.624 83.9856 203.863 81.0206 199.512 81.0206C187.541 81.0206 186.785 102.446 194.994 107.746C197.308 109.238 200.798 109.622 203.439 108.932C205.262 108.454 208.137 106.654 208.599 104.504C208.665 104.661 208.735 104.818 208.815 104.975C209.997 107.397 212.909 109.263 216.429 109.263C219.484 109.263 221.292 106.827 221.292 106.827C221.292 106.827 219.508 106.193 218.704 104.039H218.704ZM203.17 102.307V102.311C203.159 102.311 203.151 102.31 203.141 102.31C203.129 102.31 203.123 102.311 203.109 102.311V102.307C200.435 102.267 199.097 99.5721 199.097 95.1745C199.097 90.7804 200.793 88.0889 203.109 88.0396V88.0354C203.123 88.0354 203.129 88.0396 203.141 88.0396C203.151 88.0396 203.159 88.0354 203.17 88.0354V88.0396C205.489 88.0888 207.186 90.7804 207.186 95.1745C207.186 99.5721 205.845 102.267 203.17 102.307Z" fill="#472380"/>
<path d="M245.823 100.456C245.823 100.456 244.294 102.562 238.364 102.562C232.433 102.562 231.161 97.9278 231.161 97.9278C239.803 97.9278 247.053 97.346 247.053 90.3125C247.053 83.2805 239.144 80.9609 234.455 80.9609C226.713 80.9609 221.056 87.1675 221.056 95.3595C221.056 104.586 228.422 109.264 234.537 109.264C245.306 109.264 245.823 100.456 245.823 100.456V100.456ZM230.601 93.4153C230.904 91.1702 231.439 88.3409 233.448 87.0307C235.117 85.9413 237.453 87.1814 237.489 89.2787C237.527 91.494 236.102 93.0026 234.118 93.4222C233.907 93.4675 230.571 93.6351 230.601 93.4152" fill="#472380"/>
<path d="M287.522 100.456C287.522 100.456 285.993 102.562 280.063 102.562C274.133 102.562 272.86 97.9278 272.86 97.9278C281.502 97.9278 288.752 97.346 288.752 90.3125C288.752 83.2805 280.843 80.9609 276.155 80.9609C268.412 80.9609 262.755 87.1675 262.755 95.3595C262.755 104.586 270.121 109.264 276.236 109.264C287.005 109.264 287.522 100.456 287.522 100.456V100.456ZM272.3 93.4153C272.603 91.1702 273.138 88.3409 275.147 87.0307C276.816 85.9413 279.152 87.1814 279.188 89.2787C279.226 91.494 277.801 93.0026 275.817 93.4222C275.606 93.4675 272.271 93.6351 272.3 93.4152" fill="#472380"/>
<path d="M307.079 101.217H301.14C301.577 101.217 305.97 97.4934 307.427 96.2522C311.242 92.9978 318.103 88.3024 316.103 82.2201L316.108 82.2628C315.741 80.8144 314.632 79.9785 314.632 79.9785C314.632 79.9785 314.217 81.161 312.806 81.69C312.23 81.8303 311.654 81.9362 311.079 81.9705C310.604 81.9789 294.479 81.9705 294.479 81.9705C292.298 81.9677 290.47 83.7307 290.44 85.8102C290.415 87.9075 292.14 89.5897 294.35 89.6195L303.757 89.6797C299.397 92.1241 294.189 95.0191 291.545 99.439C290.035 101.976 288.419 105.887 289.033 108.888C291.123 107.025 296.608 105.223 300.783 106.099C302.347 106.427 304.008 107.229 305.36 108.079C313.191 113.002 317.897 103.373 314.153 99.1282C314.153 99.1282 312.018 101.217 307.079 101.217" fill="#472380"/>
<path d="M130.542 107.205C125.739 101.912 124.236 93.1085 123.94 87.2575C123.686 82.2026 123.958 73.4481 127.921 70.9003C126.594 69.2241 123.977 68.5488 121.988 68.5488C117.52 68.5488 115.366 71.5402 113.838 73.6913C113.333 74.4019 105.82 84.82 105.82 84.82C105.82 84.82 99.4999 74.9931 98.7232 73.8126C97.6497 72.1837 95.6397 69.1903 92.107 68.6722C90.5858 68.4489 86.6395 68.246 84.4915 71.2091C88.1939 74.1865 88.1013 81.769 87.2974 86.9458C84.8857 102.485 78.3076 103.916 78.3076 103.916C81.6771 113.062 90.3547 109.448 92.807 102.156C94.395 97.4156 95.4205 91.4154 95.657 86.4396L105.18 101.123C105.18 101.123 115.963 86.4853 115.963 86.4982C114.187 112.385 123.032 119.723 130.767 119.723C138.508 119.723 141.142 112.607 141.142 112.607C136.957 112.353 133.293 110.237 130.542 107.205" fill="#472380"/>
<path d="M154.697 115.625C154.79 116.005 154.839 116.379 154.864 116.755C154.865 116.869 154.857 130.298 154.863 130.458C154.897 131.587 155.935 132.517 157.003 132.571C158.138 132.628 159.262 131.636 159.319 130.458C159.324 130.305 159.319 118.211 159.319 118.211C159.309 117.196 159.407 116.158 158.931 115.225C158.425 114.188 157.178 113.389 155.672 113.389C154.364 113.389 153.59 114.432 153.59 114.432C153.59 114.432 154.354 114.703 154.697 115.625" fill="#472380"/>
<path d="M295.938 130.337C295.846 129.957 295.797 129.584 295.772 129.206C295.771 129.092 295.778 115.664 295.773 115.505C295.739 114.376 294.701 113.445 293.633 113.391C292.498 113.334 291.374 114.326 291.317 115.505C291.312 115.658 291.317 127.751 291.317 127.751C291.328 128.766 291.229 129.803 291.705 130.738C292.212 131.774 293.457 132.573 294.964 132.573C296.272 132.573 297.045 131.53 297.045 131.53C297.045 131.53 296.282 131.258 295.938 130.337" fill="#472380"/>
<path d="M215.324 120.341C213.007 120.341 211.636 122.299 211.247 122.94L211.234 122.95C211.233 122.302 211.231 121.79 211.231 121.764C211.197 120.636 210.159 119.793 209.092 119.741C207.958 119.683 206.833 120.587 206.777 121.764C206.774 121.917 206.774 130.337 206.777 130.45C206.812 131.577 207.849 132.508 208.917 132.561C210.051 132.617 211.174 131.626 211.231 130.45C211.234 130.364 211.235 127.616 211.234 125.249L211.253 125.237C211.444 124.328 211.953 123.399 212.722 123.399C213.717 123.399 213.772 124.512 213.777 124.512L213.767 130.45C213.802 131.576 214.839 132.507 215.907 132.561C217.041 132.617 218.165 131.626 218.222 130.45L218.216 127.347C218.216 124.156 218.547 120.326 215.324 120.341" fill="#472380"/>
<path d="M272.267 120.341C269.951 120.341 268.579 122.299 268.19 122.94L268.178 122.95C268.177 122.302 268.175 121.79 268.175 121.764C268.14 120.636 267.103 119.793 266.036 119.741C264.902 119.683 263.777 120.587 263.721 121.764C263.717 121.917 263.717 130.337 263.721 130.45C263.755 131.577 264.793 132.508 265.86 132.561C266.994 132.617 268.118 131.626 268.175 130.45C268.178 130.364 268.179 127.616 268.178 125.249L268.196 125.237C268.387 124.328 268.897 123.399 269.666 123.399C270.66 123.399 270.716 124.512 270.72 124.512L270.711 130.45C270.745 131.576 271.783 132.507 272.851 132.561C273.984 132.617 275.108 131.626 275.165 130.45L275.159 127.347C275.159 124.156 275.49 120.326 272.267 120.341" fill="#472380"/>
<path d="M170.095 120.341C167.779 120.341 166.407 122.299 166.019 122.94L166.006 122.95C166.005 122.302 166.003 121.79 166.003 121.764C165.969 120.636 164.932 119.793 163.864 119.741C162.73 119.683 161.605 120.587 161.549 121.764C161.545 121.917 161.545 130.337 161.549 130.45C161.583 131.577 162.621 132.508 163.689 132.561C164.822 132.617 165.946 131.626 166.003 130.45C166.006 130.364 166.007 127.616 166.006 125.249L166.025 125.237C166.215 124.328 166.725 123.399 167.494 123.399C168.489 123.399 168.544 124.512 168.549 124.512L168.54 130.45C168.573 131.576 169.611 132.507 170.679 132.561C171.813 132.617 172.937 131.626 172.993 130.45L172.987 127.347C172.987 124.156 173.318 120.326 170.095 120.341" fill="#472380"/>
<path d="M256.119 119.779C252.615 119.779 249.773 122.633 249.773 126.156C249.773 129.68 252.615 132.533 256.119 132.533C259.623 132.533 262.464 129.68 262.464 126.156C262.464 122.633 259.623 119.779 256.119 119.779V119.779ZM256.165 129.825V129.827C256.159 129.827 256.155 129.826 256.15 129.826C256.145 129.826 256.141 129.827 256.139 129.827V129.825C254.939 129.801 254.34 128.419 254.34 126.156C254.34 123.897 255.099 122.512 256.139 122.487V122.487C256.141 122.487 256.145 122.487 256.15 122.487C256.155 122.487 256.159 122.487 256.165 122.487V122.487C257.201 122.512 257.962 123.897 257.962 126.156C257.962 128.419 257.363 129.801 256.165 129.825Z" fill="#472380"/>
<path d="M232.424 121.609C232.388 120.429 231.283 119.453 230.166 119.397C228.976 119.338 227.799 120.376 227.739 121.609C227.738 121.695 227.728 121.878 227.728 121.911C227.164 121.125 225.929 119.797 223.979 119.797C218.616 119.797 218.276 129.396 221.954 131.771C222.992 132.44 224.556 132.611 225.739 132.302C226.408 132.127 227.393 131.554 227.841 130.822C228.115 131.764 229.045 132.482 229.999 132.53C231.187 132.589 232.365 131.553 232.424 130.319C232.429 130.158 232.428 121.717 232.424 121.609H232.424ZM225.618 129.335V129.336C225.614 129.336 225.609 129.336 225.605 129.336C225.599 129.336 225.597 129.336 225.591 129.336V129.335C224.392 129.316 223.793 128.108 223.793 126.138C223.793 124.169 224.553 122.964 225.591 122.941V122.939C225.596 122.939 225.599 122.941 225.605 122.941C225.609 122.941 225.614 122.939 225.618 122.939V122.941C226.656 122.964 227.418 124.169 227.418 126.138C227.418 128.108 226.816 129.316 225.618 129.335Z" fill="#472380"/>
<path d="M289.321 121.609C289.286 120.429 288.181 119.453 287.062 119.397C285.874 119.338 284.698 120.376 284.638 121.609C284.636 121.695 284.624 121.878 284.624 121.911C284.063 121.125 282.826 119.797 280.876 119.797C275.513 119.797 275.173 129.396 278.852 131.771C279.889 132.44 281.454 132.611 282.636 132.302C283.305 132.127 284.291 131.554 284.739 130.822C285.013 131.764 285.943 132.482 286.896 132.53C288.085 132.589 289.262 131.553 289.321 130.319C289.326 130.158 289.324 121.717 289.321 121.609H289.321ZM282.516 129.335V129.336C282.511 129.336 282.508 129.336 282.503 129.336C282.498 129.336 282.495 129.336 282.488 129.336V129.335C281.29 129.316 280.69 128.108 280.69 126.138C280.69 124.169 281.451 122.964 282.488 122.941V122.939C282.495 122.939 282.498 122.941 282.503 122.941C282.507 122.941 282.511 122.939 282.516 122.939V122.941C283.555 122.964 284.315 124.169 284.315 126.138C284.315 128.108 283.714 129.316 282.516 129.335" fill="#472380"/>
<path d="M248.376 122.811C248.323 121.698 247.454 120.826 246.357 120.733C246.292 120.726 246.231 120.713 246.168 120.713C245.176 120.713 243.928 121.575 243.928 122.665L243.933 126.794H243.928C243.942 128.082 243.926 130.409 243.928 130.435C243.981 131.547 244.851 132.42 245.945 132.512C246.012 132.521 246.071 132.533 246.136 132.533C247.127 132.533 248.376 131.671 248.376 130.581L248.371 127.131H248.376C248.361 125.842 248.378 122.836 248.376 122.811Z" fill="#472380"/>
<path d="M248.359 117.227C248.359 118.452 247.37 119.444 246.151 119.444C244.931 119.444 243.943 118.452 243.943 117.227C243.943 116 244.931 115.006 246.151 115.006C247.37 115.006 248.359 116 248.359 117.227Z" fill="#472380"/>
<path d="M203.231 120.188C201.909 120.242 201.255 121.233 200.354 122.477C200.348 122.487 200.355 121.902 200.355 121.88C200.32 120.753 199.283 119.822 198.217 119.768C197.081 119.711 195.958 120.702 195.901 121.88V130.477H195.897C195.932 131.605 196.969 132.537 198.037 132.589C199.161 132.645 200.272 131.672 200.348 130.51H200.358L200.357 125.064C200.424 124.265 200.77 123.268 201.41 123.273C202.313 123.281 201.379 125.479 203.453 125.479C206.427 125.479 206.745 120.042 203.232 120.188" fill="#472380"/>
<path d="M194.147 128.581C194.147 128.581 193.461 129.525 190.802 129.525C188.141 129.525 187.569 127.447 187.569 127.447C191.447 127.447 194.698 127.186 194.698 124.031C194.698 120.876 191.151 119.836 189.048 119.836C185.574 119.836 183.036 122.619 183.036 126.294C183.036 130.434 186.341 132.532 189.084 132.532C193.915 132.532 194.147 128.581 194.147 128.581V128.581ZM187.317 125.422C187.453 124.415 187.694 123.146 188.596 122.558C189.344 122.07 190.392 122.626 190.409 123.566C190.426 124.56 189.786 125.237 188.896 125.425C188.802 125.445 187.304 125.521 187.317 125.423" fill="#472380"/>
<path d="M182.767 130.176C182.767 130.176 181.609 132.534 179.468 132.534C177.705 132.534 175.537 130.969 175.446 128.705C175.445 128.684 175.434 125.426 175.425 122.702H174.827C174.515 122.702 173.961 122.515 173.961 121.696C173.961 120.878 174.584 120.705 174.891 120.705H175.42C175.418 119.753 175.417 119.098 175.418 119.057C175.474 117.883 176.596 116.894 177.728 116.952C178.793 117.005 179.855 117.933 179.889 119.057V120.704H181.774C182.036 120.704 182.64 120.875 182.64 121.709C182.64 122.543 182.036 122.702 181.709 122.702H179.889V127.703C179.889 129.326 181.279 130.169 182.773 130.174" fill="#472380"/>
<path d="M242.365 130.176C242.365 130.176 241.206 132.534 239.066 132.534C237.304 132.534 235.135 130.969 235.045 128.705C235.043 128.684 235.032 125.426 235.023 122.702H234.425C234.112 122.702 233.56 122.515 233.56 121.696C233.56 120.878 234.182 120.705 234.49 120.705H235.018C235.016 119.753 235.015 119.098 235.016 119.057C235.073 117.883 236.194 116.894 237.326 116.952C238.391 117.005 239.453 117.933 239.487 119.057V120.704H241.372C241.633 120.704 242.238 120.875 242.238 121.709C242.238 122.543 241.633 122.702 241.307 122.702H239.487V127.703C239.487 129.326 240.877 130.169 242.371 130.174" fill="#472380"/>
</svg>
