<svg width="126" height="63" viewBox="0 0 126 63" fill="none" xmlns="http://www.w3.org/2000/svg">
<g style="mix-blend-mode:luminosity">
<path d="M17.5428 17.325C9.79387 17.325 3.52539 23.5934 3.52539 31.3424C3.52539 39.0914 9.79387 45.3599 17.5428 45.3599C25.2918 45.3599 31.5603 39.0914 31.5603 31.3424C31.5918 23.5934 25.2918 17.325 17.5428 17.325Z" fill="#4A6F67"/>
<path d="M118.154 30.0517C119.634 30.0517 119.918 31.2802 119.981 32.4772H116.484C116.516 31.4377 116.831 30.0517 118.154 30.0517ZM118.343 36.9816C116.768 36.9816 116.484 35.6271 116.484 34.3041H123.068C123.068 31.1227 121.934 28.2562 118.248 28.2562C115.067 28.2562 113.46 30.8392 113.46 33.8001C113.46 36.8556 115.287 38.7771 118.343 38.7771C120.422 38.7771 122.564 37.8951 122.721 35.5641H120.075C119.855 36.5091 119.319 36.9816 118.343 36.9816ZM106.215 30.3667H104.01V26.4607H106.247C107.507 26.4607 108.546 26.9962 108.546 28.3822C108.546 29.7997 107.507 30.3667 106.215 30.3667ZM108.672 31.4377C110.436 30.9337 111.759 29.8627 111.759 27.9097C111.759 25.1692 109.208 24.2557 106.845 24.2557H100.923V38.5251H103.979V32.7292H106.373C109.113 32.7292 108.452 36.5406 108.893 38.5251H112.232C110.751 35.8161 112.578 32.1937 108.672 31.4377ZM94.718 31.1542H92.0405C91.9775 30.4297 91.316 30.0517 90.623 30.0517C89.993 30.0517 89.0795 30.2407 89.111 31.0597C89.1425 31.6897 89.8355 31.8787 90.3395 32.0047L91.4735 32.2882C93.206 32.6662 95.1905 33.3906 95.1905 35.4696C95.1905 37.9896 92.6075 38.7456 90.5285 38.7456C88.481 38.7456 86.465 37.8321 86.3075 35.6271H89.048C89.1425 36.5091 89.8355 36.9501 90.686 36.9501C91.442 36.9501 92.4185 36.6351 92.4185 35.7216C92.4185 33.8316 86.465 35.1861 86.465 31.3432C86.465 29.0122 88.796 28.2562 90.749 28.2562C92.5445 28.2562 94.34 28.9807 94.6235 30.9337L94.718 31.1542ZM84.953 31.1542H82.2755C82.2125 30.4297 81.551 30.0517 80.858 30.0517C80.228 30.0517 79.3145 30.2407 79.346 31.0597C79.3775 31.6897 80.0705 31.8787 80.5745 32.0047L81.7085 32.2882C83.441 32.6662 85.4255 33.3906 85.4255 35.4696C85.4255 37.9896 82.8425 38.7456 80.7635 38.7456C78.716 38.7456 76.7 37.8321 76.5425 35.6271H79.283C79.3775 36.5091 80.0705 36.9501 80.921 36.9501C81.677 36.9501 82.6535 36.6351 82.6535 35.7216C82.6535 33.8316 76.7 35.1861 76.7 31.3432C76.7 29.0122 79.031 28.2562 80.984 28.2562C82.7795 28.2562 84.575 28.9807 84.8585 30.9337L84.953 31.1542ZM71.8176 26.6812H74.9676V24.2242H71.8176V26.6812ZM71.9121 38.4936H74.8731V28.5397H71.9121V38.4936ZM63.5646 38.4936L62.1471 33.7686C61.8321 32.7292 61.6431 31.6897 61.4226 30.6502C61.2651 31.4062 61.1391 32.1622 60.9186 32.8867L60.6981 33.6741L59.3751 38.4936H55.8786L52.6341 28.5397H55.9731L57.3591 33.7371L57.5481 34.4616L57.7056 35.1546C57.7686 35.5641 57.8316 35.9736 57.8946 36.3831C58.0521 35.1861 58.3356 34.0521 58.6506 32.9182L59.8791 28.5397H63.2811L64.5726 33.1072C64.8876 34.1781 65.1081 35.2491 65.2656 36.3516L65.3601 35.7846C65.4861 34.8396 65.7381 33.9261 66.0216 32.9812L67.2501 28.5397H70.4316L67.0296 38.4936H63.5646ZM51.4686 28.2247H48.5391C48.5076 26.8387 47.4996 26.0512 46.1452 26.0512C44.9797 26.0512 43.6252 26.4922 43.6252 27.8782C43.6252 31.0282 51.9096 28.9492 51.9096 34.1466C51.9096 37.3281 49.1691 38.7771 46.2397 38.7771C42.9322 38.7771 40.1602 37.6116 40.1917 33.9891H43.3102C43.3102 35.5641 44.1607 36.6351 45.8302 36.6351C47.0586 36.6351 48.6966 36.1941 48.6966 34.7136C48.6966 31.4062 40.5382 33.6426 40.5382 28.2877C40.5382 25.1377 43.4677 23.9092 46.2082 23.9092C49.0746 23.9092 51.2796 25.2952 51.4686 28.2247Z" fill="#4A6F67"/>
<path d="M24.5673 24.2242H10.5498V27.1852H24.5673V24.2242Z" fill="white"/>
<path d="M24.4417 29.3896H21.3232V38.4931H24.4417V29.3896Z" fill="white"/>
<path d="M19.118 29.3896H15.9995V38.4931H19.118V29.3896Z" fill="white"/>
<path d="M13.7943 29.3896H10.6758V38.4931H13.7943V29.3896Z" fill="white"/>
</g>
</svg>
